# xmcd
#
# Track frame offsets:
#	150
#	18505
#	32107
#	49372
#	62630
#	75252
#	100885
#	115440
#	129337
#	141345
#	160015
#	174070
#	189627
#	199302
#	216142
#	237142
#	271317
#	283570
#	308672
#	329300
#
# Disc length: 4643 seconds
#
# Revision: 0
# Processed by: cddbd v1.5.1PL0 Copyright (c) Steve Scherf et al.
# Submitted via: dBpowerAMP V4.0
#
DISCID=17122114
DTITLE=Willie Nelson - On The Road Again
DYEAR=1900
DGENRE=Country
TTITLE0=Night Life
TTITLE1=Heartbreak Hotel
TTITLE2=As Time Goes By
TTITLE3=You're Gonna Love Yourself In the Morning
TTITLE4=Angel Eyes
TTITLE5=Amazing Grace
TTITLE6=There Is A Fountain
TTITLE7=I Saw The Light
TTITLE8=Sweet Bye and Bye
TTITLE9=In The Garden
TTITLE10=Shall We Gather
TTITLE11=Homeward Bound
TTITLE12=In The Jailhouse Now
TTITLE13=Husbands and Wives
TTITLE14=Uncloudy Day
TTITLE15=Precious Memeories
TTITLE16=When The Roll Is Called Up Yonder
TTITLE17=Whispering Hope
TTITLE18=Will The Circle Be Unbroken
TTITLE19=Where The Soul Never Dies
EXTD=Readers Digest Release
EXTT0=
EXTT1=
EXTT2=
EXTT3=
EXTT4=
EXTT5=
EXTT6=
EXTT7=
EXTT8=
EXTT9=
EXTT10=
EXTT11=
EXTT12=
EXTT13=
EXTT14=
EXTT15=
EXTT16=
EXTT17=
EXTT18=
EXTT19=
PLAYORDER=
